<svg width="50" height="50" viewBox="0 0 50 50" fill="none" xmlns="http://www.w3.org/2000/svg">
<path d="M36.2897 0.772903H11.4599C5.13077 0.772903 0 5.97939 0 12.4019V37.5981C0 44.0206 5.13077 49.2271 11.4599 49.2271H36.2897C42.6188 49.2271 47.7496 44.0206 47.7496 37.5981V12.4019C47.7496 5.97939 42.6188 0.772903 36.2897 0.772903Z" fill="url(#paint0_linear_40_67)"/>
<path fill-rule="evenodd" clip-rule="evenodd" d="M23.8748 40.5053C32.3137 40.5053 39.1547 33.5634 39.1547 25C39.1547 16.4366 32.3137 9.49466 23.8748 9.49466C15.436 9.49466 8.59497 16.4366 8.59497 25C8.59497 33.5634 15.436 40.5053 23.8748 40.5053ZM21.1782 16.7913H26.5711V22.3213H21.1788V27.6785H26.5711V33.2085H21.1782V27.8513H15.786V22.3213H21.1782V16.7913ZM26.572 22.3213H31.9648V27.8513H26.572V22.3213Z" fill="black"/>
<defs>
<linearGradient id="paint0_linear_40_67" x1="47.7496" y1="0.772902" x2="-0.699417" y2="48.5174" gradientUnits="userSpaceOnUse">
<stop stop-color="#A9FFE0"/>
<stop offset="1" stop-color="#86D5FF"/>
</linearGradient>
</defs>
</svg>
