<svg width="276" height="250" viewBox="0 0 276 250" fill="none" xmlns="http://www.w3.org/2000/svg">
<path d="M8.56686 241.054V223.208H59.95V214.286H12.3684H5.20237L0 223.339V226.183V249.976H59.95V241.054H8.56686Z" fill="white"/>
<path d="M123.031 214.292V241.06H80.544V214.292H72.049V240.893L77.2514 249.881L128.054 249.982H131.526V214.292H123.031Z" fill="white"/>
<path d="M203.533 226.861L203.593 223.292L198.391 214.31H144.206V250L198.421 249.929L203.623 240.941V236.616L203.533 226.861ZM195.152 241.06H152.647V236.598H195.152V241.06ZM195.152 227.676H152.647V223.214H195.152V227.676Z" fill="white"/>
<path d="M224.109 241.06V236.598H275.373V227.676H224.109V223.214H275.373V214.292H220.769L215.566 223.345V249.982H275.373V241.06H224.109Z" fill="white"/>
<path d="M152.613 178.571H121.162L105.507 151.299H136.919L152.613 178.571Z" fill="#428F8F"/>
<path d="M152.613 118.839L146.772 129.063L136.881 146.52H105.456L111.321 136.219H130.095C130.154 136.225 130.214 136.225 130.274 136.219H130.644C130.772 136.159 130.896 136.091 131.015 136.015H131.092L131.411 135.746L131.552 135.58L131.641 135.478L131.782 135.261L131.858 135.12L141.009 119.273L140.894 119.069L152.613 118.839Z" fill="#428F8F"/>
<path d="M172.524 148.782L156.741 176.156L141.047 148.897L156.741 121.203L172.524 148.782Z" fill="#428F8F"/>
<path d="M168.511 30.352L174.108 40.1668H163.655L156.945 28.4734L171.974 2.33879L177.239 11.3613L168.051 27.451C167.996 27.5407 167.949 27.6348 167.91 27.7322C167.91 27.7322 167.91 27.8472 167.846 27.8983V28.435C167.862 28.8219 167.971 29.1992 168.166 29.5341L168.511 30.352Z" fill="#428F8F"/>
<path d="M239.822 29.355L225.559 55.6813L225.521 55.6046L209.853 28.601L224.294 2.4792L232.052 15.9171L239.809 29.355H239.822Z" fill="#428F8F"/>
<path d="M220.192 0.0255845L205.763 26.109L205.674 26.2624H174.159L181.75 13.1376L182.76 11.3868L189.239 0.217281L220.192 0.0255845Z" fill="#428F8F"/>
<path d="M221.559 58.2628H210.556V58.0967L200.894 41.3041L200.741 41.0868C200.661 40.9839 200.571 40.8897 200.472 40.8057L200.409 40.7418L200.102 40.5245L199.757 40.3584C199.638 40.3067 199.513 40.2681 199.386 40.2433C199.219 40.2033 199.047 40.1819 198.875 40.1795H179.526L174.3 31.0675H174.427L185.929 31.0036H191.36L205.75 30.9141L205.84 31.0675L221.47 58.135L221.559 58.2628Z" fill="#428F8F"/>
<path d="M179.514 131.376H168.012L158.811 115.312L158.734 115.171L158.645 115.043L158.542 114.928L158.427 114.813L158.312 114.711L158.21 114.494L157.954 114.315L157.801 114.251H157.379C157.316 114.239 157.251 114.239 157.188 114.251H143.884L149.635 104.283H163.693L179.514 131.376Z" fill="#428F8F"/>
<path d="M214.76 75.3111L183.68 129.012L167.91 101.688L190.99 61.0872V61.0744L191.092 60.8955L198.824 47.2979L204.958 58.1351L205.022 58.2373L206.543 60.8955L206.607 60.9977L207.693 62.9019L207.744 63.0042L207.795 63.0936L214.76 75.3111Z" fill="#428F8F"/>
<path d="M163.425 99.3114L149.737 99.2603L140.996 84.0524L154.53 60.985L154.581 60.8955L156.153 58.2117L162.402 47.579L163.488 45.7004L163.91 44.9847H166.402L176.869 44.9464L178.977 44.9336H181.354L183.821 44.9208L194.364 44.8825L163.425 99.3114Z" fill="#428F8F"/>
<path d="M145.558 101.561L144.139 104.014L138.376 114.008L138.273 114.2L135.628 118.775L135.513 118.979L129.737 128.986L128.51 126.826L98.9502 75.0682L105.902 62.9019L123.283 62.8891L123.308 62.9274L135.462 84.0396L135.628 84.3207L138.21 88.7936L138.363 89.0748L144.216 99.2475L145.558 101.561Z" fill="#428F8F"/>
<path d="M101.672 60.6655L101.557 60.8571L94.797 72.6784L63.3716 72.5123L68.8541 63.068H88.8544C88.9476 63.0813 89.0423 63.0813 89.1355 63.068H89.5189L89.749 62.9786L90.0046 62.8252L90.2474 62.6463L90.3624 62.5313C90.5156 62.3784 90.6487 62.2066 90.7586 62.0201L96.3689 51.8858L96.4456 51.7452L101.672 60.6655Z" fill="#428F8F"/>
<path d="M125.622 131.427L114.044 131.491L108.523 131.529L94.4778 131.606L63.3591 77.3047L94.7973 77.458L117.085 116.487L117.967 118.021L119.833 121.305L125.622 131.427Z" fill="#428F8F"/>
<path d="M84.4962 58.2885L52.5341 58.3013L36.9172 31.0421H68.3426L84.4962 58.2885Z" fill="#428F8F"/>
<path d="M159.654 42.7993L150.619 58.1861L126.069 58.1606H105.724V58.135H105.506L105.443 58.0328L99.1038 46.94L98.2092 45.3808L96.305 42.0709L89.9407 30.9525H152.843L152.919 31.0803L159.654 42.7993Z" fill="#428F8F"/>
<path d="M167.821 0L152.792 26.1857L152.715 26.3135L107.82 26.2113H102.209L91.9472 26.1985H89.9663L95.9856 16.128L98.7588 11.5273L105.634 0.0894582L167.821 0Z" fill="#428F8F"/>
<path d="M93.6467 46.7612L93.5828 46.8634L88.5987 55.8092L82.3749 45.2787L72.509 28.6139L87.5124 2.326L93.1738 11.5019L83.7679 27.2209C83.5533 27.5805 83.4386 27.9908 83.4356 28.4095C83.4339 28.8295 83.5395 29.243 83.7424 29.6108L83.8318 29.7513L90.0044 40.4352L92.7649 45.2021L93.6467 46.7612Z" fill="#428F8F"/>
<path d="M83.3208 0.0895456L68.3813 26.2625H36.9048L51.8571 0.0895456H83.3208Z" fill="#428F8F"/>
</svg>
